<svg width="78" height="70" viewBox="0 0 78 70" fill="none" xmlns="http://www.w3.org/2000/svg">
<g clip-path="url(#clip0_582_7114)">
<path d="M26.7007 68.7108C20.4782 67.0823 14.8366 63.7427 10.4158 59.0708C5.99493 54.3988 2.97178 48.5816 1.68922 42.2787C0.406651 35.9759 0.915999 29.4397 3.15951 23.4117C5.40302 17.3836 9.29088 12.1049 14.3821 8.1742C19.4734 4.24353 25.5643 1.81825 31.9639 1.17341C38.3635 0.528574 44.8158 1.69001 50.5889 4.52597C56.362 7.36194 61.2248 11.7589 64.6258 17.2182C68.0268 22.6776 69.8299 28.9807 69.8305 35.4127M55.1082 16.4997L38.5481 33.0558M32.1254 33.9618L19.3131 26.5622" stroke="#16A34A" stroke-width="1.99965" stroke-miterlimit="10"/>
<path d="M35.4145 31.5273C34.6466 31.5281 33.8962 31.7566 33.2581 32.1838C32.62 32.6109 32.1229 33.2177 31.8296 33.9274C31.5363 34.637 31.46 35.4177 31.6103 36.1707C31.7606 36.9237 32.1307 37.6153 32.674 38.158C33.2172 38.7007 33.9092 39.0702 34.6623 39.2197C35.4155 39.3692 36.1961 39.292 36.9055 38.998C37.6148 38.704 38.2211 38.2062 38.6476 37.5677C39.0741 36.9292 39.3018 36.1786 39.3018 35.4107C39.3017 34.9004 39.201 34.3952 39.0056 33.9238C38.8101 33.4525 38.5237 33.0242 38.1627 32.6636C37.8017 32.303 37.3732 32.017 36.9016 31.8221C36.4301 31.6271 35.9247 31.527 35.4145 31.5273Z" stroke="#16A34A" stroke-width="1.99965" stroke-miterlimit="10"/>
<path d="M35.4112 9.26953V11.6884M9.26758 35.411H11.6895M76.4941 26.3475L70.5794 38.7748L62.0409 27.9755M35.4112 58.0688V60.4906" stroke="#16A34A" stroke-width="1.99965" stroke-miterlimit="10"/>
</g>
<defs>
<clipPath id="clip0_582_7114">
<rect width="77.4" height="69.68" fill="white"/>
</clipPath>
</defs>
</svg>
